<svg width="317" height="874" viewBox="0 0 317 874" fill="none" xmlns="http://www.w3.org/2000/svg">
<path d="M161.932 0.903442C161.932 0.903442 161.932 7.94227 161.932 52.4106C161.932 96.8789 81.0425 60.4278 35.5661 98.4413C-9.91032 136.455 15.4829 194.974 43.0973 209.554C70.7116 224.134 123.966 220.848 231.377 224.135C338.788 227.421 338.599 344.52 231.377 344.52C124.155 344.52 212.555 344.52 123.966 344.52C35.3773 344.52 41.0019 440.478 129.591 440.478C218.179 440.478 182.322 440.478 255.443 440.478C328.563 440.478 322.939 544.903 255.443 544.903C187.947 544.903 138.364 544.903 60.3644 544.903C-17.6356 544.903 -14.6356 657 52.8644 659C120.364 661 180.864 659 255.443 664.5C330.021 670 338.521 767.5 255.443 780.5C172.364 793.5 153.466 794.5 123.966 814.5C94.466 834.5 52.8644 872.5 52.8644 872.5" stroke="#FFD15C" stroke-width="3"/>
</svg>
